<?xml version="1.0" encoding="UTF-8" standalone="no"?>
<!-- Created with Inkscape (http://www.inkscape.org/) -->

<svg
   width="316.78485mm"
   height="86.207474mm"
   viewBox="0 0 316.78485 86.207474"
   version="1.1"
   id="svg1"
   inkscape:version="1.3.2 (091e20e, 2023-11-25, custom)"
   sodipodi:docname="debt.svg"
   inkscape:export-filename="g6.svg"
   inkscape:export-xdpi="173.37"
   inkscape:export-ydpi="173.37"
   xmlns:inkscape="http://www.inkscape.org/namespaces/inkscape"
   xmlns:sodipodi="http://sodipodi.sourceforge.net/DTD/sodipodi-0.dtd"
   xmlns:xlink="http://www.w3.org/1999/xlink"
   xmlns="http://www.w3.org/2000/svg"
   xmlns:svg="http://www.w3.org/2000/svg">
  <sodipodi:namedview
     id="namedview1"
     pagecolor="#ffffff"
     bordercolor="#666666"
     borderopacity="1.0"
     inkscape:showpageshadow="false"
     inkscape:pageopacity="0.0"
     inkscape:pagecheckerboard="0"
     inkscape:deskcolor="#d1d1d1"
     inkscape:document-units="mm"
     showborder="false"
     borderlayer="false"
     shape-rendering="auto"
     inkscape:zoom="0.5007929"
     inkscape:cx="205.67384"
     inkscape:cy="344.45376"
     inkscape:window-width="1920"
     inkscape:window-height="1051"
     inkscape:window-x="-9"
     inkscape:window-y="-9"
     inkscape:window-maximized="1"
     inkscape:current-layer="layer1" />
  <defs
     id="defs1">
    <linearGradient
       id="linearGradient26-1">
      <stop
         style="stop-color:#f3f8fc;stop-opacity:1;"
         offset="0"
         id="stop27" />
      <stop
         style="stop-color:#c4dbef;stop-opacity:1;"
         offset="1"
         id="stop28" />
    </linearGradient>
    <linearGradient
       inkscape:collect="always"
       xlink:href="#linearGradient26-1"
       id="linearGradient36"
       gradientUnits="userSpaceOnUse"
       x1="43.089443"
       y1="58.456165"
       x2="42.733788"
       y2="98.429741"
       spreadMethod="pad"
       gradientTransform="matrix(1,0,0,1.6193049,389.27547,-35.807107)" />
    <linearGradient
       inkscape:collect="always"
       xlink:href="#linearGradient26-1"
       id="linearGradient92"
       gradientUnits="userSpaceOnUse"
       gradientTransform="matrix(1,0,0,1.6193049,389.27547,-35.807107)"
       x1="43.089443"
       y1="58.456165"
       x2="42.733788"
       y2="98.429741"
       spreadMethod="pad" />
    <linearGradient
       inkscape:collect="always"
       xlink:href="#linearGradient26-1"
       id="linearGradient93"
       gradientUnits="userSpaceOnUse"
       gradientTransform="matrix(1,0,0,1.6193049,389.27547,-35.807107)"
       x1="43.089443"
       y1="58.456165"
       x2="42.733788"
       y2="98.429741"
       spreadMethod="pad" />
    <linearGradient
       inkscape:collect="always"
       xlink:href="#linearGradient26-1"
       id="linearGradient94"
       gradientUnits="userSpaceOnUse"
       gradientTransform="matrix(1,0,0,1.6193049,389.27547,-35.807107)"
       x1="43.089443"
       y1="58.456165"
       x2="42.733788"
       y2="98.429741"
       spreadMethod="pad" />
    <linearGradient
       inkscape:collect="always"
       xlink:href="#linearGradient26-1"
       id="linearGradient95"
       gradientUnits="userSpaceOnUse"
       gradientTransform="matrix(1,0,0,1.6193049,389.27547,-35.807107)"
       x1="43.089443"
       y1="58.456165"
       x2="42.733788"
       y2="98.429741"
       spreadMethod="pad" />
    <linearGradient
       inkscape:collect="always"
       xlink:href="#linearGradient26-1"
       id="linearGradient96"
       gradientUnits="userSpaceOnUse"
       gradientTransform="matrix(1,0,0,1.6193049,389.27547,-35.807107)"
       x1="43.089443"
       y1="58.456165"
       x2="42.733788"
       y2="98.429741"
       spreadMethod="pad" />
  </defs>
  <g
     inkscape:label="Layer 1"
     inkscape:groupmode="layer"
     id="layer1"
     transform="translate(6.7828405,-85.851328)">
    <g
       id="g106"
       inkscape:export-filename=".\g106.svg"
       inkscape:export-xdpi="173.37"
       inkscape:export-ydpi="173.37">
      <text
         xml:space="preserve"
         style="font-style:normal;font-variant:normal;font-weight:normal;font-stretch:normal;font-size:14.1111px;line-height:1.25;font-family:Cambria;-inkscape-font-specification:Cambria;text-decoration-color:#000000;word-spacing:0px;fill:#000000;stroke-width:0.264583;-inkscape-stroke:none;stop-color:#000000"
         x="-13.021838"
         y="622.78442"
         id="text36"><tspan
           sodipodi:role="line"
           id="tspan36"
           style="font-style:normal;font-variant:normal;font-weight:normal;font-stretch:normal;font-family:Cambria;-inkscape-font-specification:Cambria;stroke-width:0.264583"
           x="-13.021838"
           y="622.78442" /></text>
      <text
         xml:space="preserve"
         style="font-style:normal;font-variant:normal;font-weight:normal;font-stretch:normal;font-size:14.1111px;line-height:1.25;font-family:Cambria;-inkscape-font-specification:Cambria;text-decoration-color:#000000;word-spacing:0px;fill:#000000;stroke-width:0.264583;-inkscape-stroke:none;stop-color:#000000"
         x="-13.81433"
         y="618.29364"
         id="text37"><tspan
           sodipodi:role="line"
           id="tspan37"
           style="font-style:normal;font-variant:normal;font-weight:normal;font-stretch:normal;font-family:Cambria;-inkscape-font-specification:Cambria;stroke-width:0.264583"
           x="-13.81433"
           y="618.29364" /></text>
      <rect
         style="opacity:0;fill:#ffffff;fill-opacity:1;fill-rule:evenodd;stroke:none;stroke-width:0.485892;stroke-linecap:round;stroke-linejoin:round;stroke-opacity:1"
         id="rect103"
         width="316.78485"
         height="86.207474"
         x="-6.7828407"
         y="85.851326" />
      <g
         id="g105"
         transform="translate(-58.652835,-2.1094315)"
         inkscape:export-filename=".\g6.svg"
         inkscape:export-xdpi="173.37"
         inkscape:export-ydpi="173.37">
        <g
           id="g103"
           transform="matrix(0.6521823,0,0,0.63010869,83.451221,-289.94094)">
          <g
             id="g94"
             transform="translate(-277.90451,598.74548)">
            <rect
               style="fill:url(#linearGradient94);fill-opacity:1;fill-rule:evenodd;stroke:none;stroke-width:1.27228;stroke-linecap:round;stroke-linejoin:round;stroke-opacity:1"
               id="rect93"
               width="73.240562"
               height="67.400406"
               x="396.50076"
               y="57.818222" />
            <path
               id="path93"
               style="fill:#5b9bd5;fill-opacity:1;fill-rule:evenodd;stroke:#ffffff;stroke-width:0.445799;stroke-linecap:round;stroke-linejoin:round"
               d="m 457.28309,13.807872 c 0.004,0.04328 0.008,0.07499 0.0114,0.128099 h -14.24756 v 0.188709 h -44.21294 c 1.30766,3.960135 7.92449,19.631086 8.71701,20.547136 v 8.12e-4 c -0.80544,0.932248 -7.66563,17.216051 -8.80314,20.823341 v 0.270519 h -0.0802 c -0.006,0.02265 -0.0106,0.04076 -0.0157,0.06076 h 44.39441 v 0.189537 h 14.25298 c -0.004,0.05343 -0.008,0.08373 -0.0118,0.127162 0.0142,-0.04031 0.0285,-0.07951 0.0476,-0.127162 h 0.11376 v -0.270532 c 1.61579,-3.599995 11.36074,-19.850852 12.5048,-20.781211 v -8.12e-4 c -1.144,-0.92901 -10.87128,-17.125113 -12.50485,-20.747197 v -0.281032 h -0.11918 c -0.0191,-0.04734 -0.0324,-0.0881 -0.0466,-0.128099 z m 12.67058,21.15705 c 0.0716,0.05795 0.11593,0.06796 0.11593,-8.12e-4 0,-0.06905 -0.0444,-0.05733 -0.11593,8.12e-4 z m -62.34254,-0.341003 c 0.0142,-0.0015 0.0222,0.01249 0.0222,0.04702 0,0.06905 -0.0314,0.05889 -0.0818,8.11e-4 0.0252,-0.02921 0.0455,-0.04624 0.0596,-0.0478 z m -11.43868,21.142458 v 0.06076 h 2.46596 c 10e-4,-0.01891 0.003,-0.0353 0.004,-0.06076 z m 2.46217,0.128099 c -0.013,0.208378 -0.0267,0.326867 -0.0412,0.292389 -0.0144,-0.03452 0.004,-0.141994 0.0412,-0.292389 z" />
          </g>
          <g
             id="g95"
             transform="translate(-356.69975,598.74548)">
            <rect
               style="fill:url(#linearGradient95);fill-opacity:1;fill-rule:evenodd;stroke:none;stroke-width:1.27228;stroke-linecap:round;stroke-linejoin:round;stroke-opacity:1"
               id="rect94"
               width="73.240562"
               height="67.400406"
               x="396.50076"
               y="57.818222" />
            <path
               id="path94"
               style="fill:#5b9bd5;fill-opacity:1;fill-rule:evenodd;stroke:#ffffff;stroke-width:0.445799;stroke-linecap:round;stroke-linejoin:round"
               d="m 457.28309,13.807872 c 0.004,0.04328 0.008,0.07499 0.0114,0.128099 h -14.24756 v 0.188709 h -44.21294 c 1.30766,3.960135 7.92449,19.631086 8.71701,20.547136 v 8.12e-4 c -0.80544,0.932248 -7.66563,17.216051 -8.80314,20.823341 v 0.270519 h -0.0802 c -0.006,0.02265 -0.0106,0.04076 -0.0157,0.06076 h 44.39441 v 0.189537 h 14.25298 c -0.004,0.05343 -0.008,0.08373 -0.0118,0.127162 0.0142,-0.04031 0.0285,-0.07951 0.0476,-0.127162 h 0.11376 v -0.270532 c 1.61579,-3.599995 11.36074,-19.850852 12.5048,-20.781211 v -8.12e-4 c -1.144,-0.92901 -10.87128,-17.125113 -12.50485,-20.747197 v -0.281032 h -0.11918 c -0.0191,-0.04734 -0.0324,-0.0881 -0.0466,-0.128099 z m 12.67058,21.15705 c 0.0716,0.05795 0.11593,0.06796 0.11593,-8.12e-4 0,-0.06905 -0.0444,-0.05733 -0.11593,8.12e-4 z m -62.34254,-0.341003 c 0.0142,-0.0015 0.0222,0.01249 0.0222,0.04702 0,0.06905 -0.0314,0.05889 -0.0818,8.11e-4 0.0252,-0.02921 0.0455,-0.04624 0.0596,-0.0478 z m -11.43868,21.142458 v 0.06076 h 2.46596 c 10e-4,-0.01891 0.003,-0.0353 0.004,-0.06076 z m 2.46217,0.128099 c -0.013,0.208378 -0.0267,0.326867 -0.0412,0.292389 -0.0144,-0.03452 0.004,-0.141994 0.0412,-0.292389 z" />
          </g>
          <g
             id="g91"
             transform="translate(-435.42075,598.74548)">
            <rect
               style="fill:url(#linearGradient96);fill-opacity:1;fill-rule:evenodd;stroke:none;stroke-width:1.27228;stroke-linecap:round;stroke-linejoin:round;stroke-opacity:1"
               id="rect90"
               width="73.240562"
               height="67.400406"
               x="396.50076"
               y="57.818222" />
            <path
               id="path90"
               style="fill:#5b9bd5;fill-opacity:1;fill-rule:evenodd;stroke:#ffffff;stroke-width:0.445799;stroke-linecap:round;stroke-linejoin:round"
               d="m 457.28309,13.807872 c 0.004,0.04328 0.008,0.07499 0.0114,0.128099 h -14.24756 v 0.188709 h -44.21294 c 1.30766,3.960135 7.92449,19.631086 8.71701,20.547136 v 8.12e-4 c -0.80544,0.932248 -7.66563,17.216051 -8.80314,20.823341 v 0.270519 h -0.0802 c -0.006,0.02265 -0.0106,0.04076 -0.0157,0.06076 h 44.39441 v 0.189537 h 14.25298 c -0.004,0.05343 -0.008,0.08373 -0.0118,0.127162 0.0142,-0.04031 0.0285,-0.07951 0.0476,-0.127162 h 0.11376 v -0.270532 c 1.61579,-3.599995 11.36074,-19.850852 12.5048,-20.781211 v -8.12e-4 c -1.144,-0.92901 -10.87128,-17.125113 -12.50485,-20.747197 v -0.281032 h -0.11918 c -0.0191,-0.04734 -0.0324,-0.0881 -0.0466,-0.128099 z m 12.67058,21.15705 c 0.0716,0.05795 0.11593,0.06796 0.11593,-8.12e-4 0,-0.06905 -0.0444,-0.05733 -0.11593,8.12e-4 z m -62.34254,-0.341003 c 0.0142,-0.0015 0.0222,0.01249 0.0222,0.04702 0,0.06905 -0.0314,0.05889 -0.0818,8.11e-4 0.0252,-0.02921 0.0455,-0.04624 0.0596,-0.0478 z m -11.43868,21.142458 v 0.06076 h 2.46596 c 10e-4,-0.01891 0.003,-0.0353 0.004,-0.06076 z m 2.46217,0.128099 c -0.013,0.208378 -0.0267,0.326867 -0.0412,0.292389 -0.0144,-0.03452 0.004,-0.141994 0.0412,-0.292389 z" />
          </g>
          <text
             xml:space="preserve"
             style="font-size:6.35px;line-height:1.25;font-family:Cambria;-inkscape-font-specification:'Cambria, Normal';font-variant-ligatures:none;text-decoration-color:#000000;word-spacing:0px;fill:#f9f9f9;stroke-width:0.264583;-inkscape-stroke:none;stop-color:#000000"
             x="-23.707718"
             y="633.87555"
             id="text38"><tspan
               sodipodi:role="line"
               id="tspan38"
               style="fill:#f9f9f9;stroke-width:0.264583"
               x="-23.707718"
               y="633.87555">Requirement of </tspan><tspan
               sodipodi:role="line"
               style="fill:#f9f9f9;stroke-width:0.264583"
               x="-23.707718"
               y="641.81305"
               id="tspan39">Client</tspan></text>
          <g
             id="g48"
             transform="translate(-44.24722,595.05101)">
            <text
               xml:space="preserve"
               style="font-size:6.35px;line-height:1.25;font-family:Cambria;-inkscape-font-specification:'Cambria, Normal';font-variant-ligatures:none;text-decoration-color:#000000;word-spacing:0px;fill:#000000;stroke-width:0.264583;-inkscape-stroke:none;stop-color:#000000"
               x="13.472386"
               y="69.739403"
               id="text40"><tspan
                 sodipodi:role="line"
                 id="tspan40"
                 style="stroke-width:0.264583"
                 x="13.472386"
                 y="69.739403">Assessing client needs</tspan><tspan
                 sodipodi:role="line"
                 style="stroke-width:0.264583"
                 x="13.472386"
                 y="77.676903"
                 id="tspan41">and developing</tspan><tspan
                 sodipodi:role="line"
                 style="stroke-width:0.264583"
                 x="13.472386"
                 y="85.614403"
                 id="tspan42">tailored finacnial</tspan><tspan
                 sodipodi:role="line"
                 style="stroke-width:0.264583"
                 x="13.472386"
                 y="93.551903"
                 id="tspan43">solutions.</tspan></text>
            <ellipse
               style="fill:#000000;fill-opacity:1;fill-rule:evenodd;stroke:none;stroke-width:0.585863;stroke-linecap:round;stroke-linejoin:round;stroke-opacity:1"
               id="path43"
               cx="11.160849"
               cy="67.852356"
               rx="0.70047164"
               ry="0.66711587" />
          </g>
          <text
             xml:space="preserve"
             style="font-size:6.35px;line-height:1.25;font-family:Cambria;-inkscape-font-specification:'Cambria, Normal';font-variant-ligatures:none;text-decoration-color:#000000;word-spacing:0px;fill:#000000;stroke-width:0.264583;-inkscape-stroke:none;stop-color:#000000"
             x="54.011795"
             y="637.1684"
             id="text44"><tspan
               sodipodi:role="line"
               id="tspan44"
               style="fill:#f9f9f9;stroke-width:0.264583"
               x="54.011795"
               y="637.1684">Lender Sourcing</tspan></text>
          <g
             id="g49"
             transform="translate(-47.291919,595.31912)">
            <text
               xml:space="preserve"
               style="font-size:6.35px;line-height:1.25;font-family:Cambria;-inkscape-font-specification:'Cambria, Normal';font-variant-ligatures:none;text-decoration-color:#000000;word-spacing:0px;fill:#000000;stroke-width:0.264583;-inkscape-stroke:none;stop-color:#000000"
               x="96.945282"
               y="69.486794"
               id="text45"><tspan
                 sodipodi:role="line"
                 id="tspan45"
                 style="stroke-width:0.264583"
                 x="96.945282"
                 y="69.486794">Identifying suitable </tspan><tspan
                 sodipodi:role="line"
                 style="stroke-width:0.264583"
                 x="96.945282"
                 y="77.424294"
                 id="tspan46">lenders and</tspan><tspan
                 sodipodi:role="line"
                 style="stroke-width:0.264583"
                 x="96.945282"
                 y="85.361794"
                 id="tspan47">negotiating favorable</tspan><tspan
                 sodipodi:role="line"
                 style="stroke-width:0.264583"
                 x="96.945282"
                 y="93.299294"
                 id="tspan48">terms.</tspan></text>
            <ellipse
               style="fill:#000000;fill-opacity:1;fill-rule:evenodd;stroke:none;stroke-width:0.585863;stroke-linecap:round;stroke-linejoin:round;stroke-opacity:1"
               id="ellipse48"
               cx="94.096695"
               cy="67.195808"
               rx="0.70047164"
               ry="0.66711587" />
          </g>
          <text
             xml:space="preserve"
             style="font-size:6.35px;line-height:1.25;font-family:Cambria;-inkscape-font-specification:'Cambria, Normal';font-variant-ligatures:none;text-decoration-color:#000000;word-spacing:0px;fill:#ffffff;stroke-width:0.264583;-inkscape-stroke:none;stop-color:#000000"
             x="132.33264"
             y="633.22595"
             id="text66"><tspan
               sodipodi:role="line"
               id="tspan66"
               style="fill:#ffffff;stroke-width:0.264583"
               x="132.33264"
               y="633.22595">CMA and Format</tspan><tspan
               sodipodi:role="line"
               style="fill:#ffffff;stroke-width:0.264583"
               x="132.33264"
               y="641.16345"
               id="tspan67">Compliance</tspan></text>
          <g
             id="g96"
             transform="translate(-44.654313,598.86818)">
            <ellipse
               style="fill:#000000;fill-opacity:1;fill-rule:evenodd;stroke:none;stroke-width:0.585863;stroke-linecap:round;stroke-linejoin:round;stroke-opacity:1"
               id="ellipse52"
               cx="172.21811"
               cy="64.020332"
               rx="0.70047164"
               ry="0.66711587" />
            <text
               xml:space="preserve"
               style="font-size:6.35px;line-height:1.25;font-family:Cambria;-inkscape-font-specification:'Cambria, Normal';font-variant-ligatures:none;text-decoration-color:#000000;word-spacing:0px;fill:#000000;stroke-width:0.264583;-inkscape-stroke:none;stop-color:#000000"
               x="175.02452"
               y="65.937737"
               id="text68"><tspan
                 sodipodi:role="line"
                 id="tspan68"
                 style="stroke-width:0.264583"
                 x="175.02452"
                 y="65.937737">Preparation of CMA</tspan><tspan
                 sodipodi:role="line"
                 style="stroke-width:0.264583"
                 x="175.02452"
                 y="73.875237"
                 id="tspan70">and compilation of</tspan><tspan
                 sodipodi:role="line"
                 style="stroke-width:0.264583"
                 x="175.02452"
                 y="81.812737"
                 id="tspan71">information in the</tspan><tspan
                 sodipodi:role="line"
                 style="stroke-width:0.264583"
                 x="175.02452"
                 y="89.750237"
                 id="tspan72">respective lender</tspan><tspan
                 sodipodi:role="line"
                 style="stroke-width:0.264583"
                 x="175.02452"
                 y="97.687737"
                 id="tspan73">format.</tspan></text>
          </g>
        </g>
        <g
           id="g102"
           transform="matrix(0.6521823,0,0,0.63010869,83.371089,-289.94094)">
          <g
             id="g92"
             transform="translate(-120.53676,598.74548)">
            <rect
               style="fill:url(#linearGradient92);fill-opacity:1;fill-rule:evenodd;stroke:none;stroke-width:1.27228;stroke-linecap:round;stroke-linejoin:round;stroke-opacity:1"
               id="rect91"
               width="73.240562"
               height="67.400406"
               x="396.50076"
               y="57.818222" />
            <path
               id="path91"
               style="fill:#5b9bd5;fill-opacity:1;fill-rule:evenodd;stroke:#ffffff;stroke-width:0.445799;stroke-linecap:round;stroke-linejoin:round"
               d="m 457.28309,13.807872 c 0.004,0.04328 0.008,0.07499 0.0114,0.128099 h -14.24756 v 0.188709 h -44.21294 c 1.30766,3.960135 7.92449,19.631086 8.71701,20.547136 v 8.12e-4 c -0.80544,0.932248 -7.66563,17.216051 -8.80314,20.823341 v 0.270519 h -0.0802 c -0.006,0.02265 -0.0106,0.04076 -0.0157,0.06076 h 44.39441 v 0.189537 h 14.25298 c -0.004,0.05343 -0.008,0.08373 -0.0118,0.127162 0.0142,-0.04031 0.0285,-0.07951 0.0476,-0.127162 h 0.11376 v -0.270532 c 1.61579,-3.599995 11.36074,-19.850852 12.5048,-20.781211 v -8.12e-4 c -1.144,-0.92901 -10.87128,-17.125113 -12.50485,-20.747197 v -0.281032 h -0.11918 c -0.0191,-0.04734 -0.0324,-0.0881 -0.0466,-0.128099 z m 12.67058,21.15705 c 0.0716,0.05795 0.11593,0.06796 0.11593,-8.12e-4 0,-0.06905 -0.0444,-0.05733 -0.11593,8.12e-4 z m -62.34254,-0.341003 c 0.0142,-0.0015 0.0222,0.01249 0.0222,0.04702 0,0.06905 -0.0314,0.05889 -0.0818,8.11e-4 0.0252,-0.02921 0.0455,-0.04624 0.0596,-0.0478 z m -11.43868,21.142458 v 0.06076 h 2.46596 c 10e-4,-0.01891 0.003,-0.0353 0.004,-0.06076 z m 2.46217,0.128099 c -0.013,0.208378 -0.0267,0.326867 -0.0412,0.292389 -0.0144,-0.03452 0.004,-0.141994 0.0412,-0.292389 z" />
          </g>
          <g
             id="g93"
             transform="translate(-199.25776,598.74548)">
            <rect
               style="fill:url(#linearGradient93);fill-opacity:1;fill-rule:evenodd;stroke:none;stroke-width:1.27228;stroke-linecap:round;stroke-linejoin:round;stroke-opacity:1"
               id="rect92"
               width="73.240562"
               height="67.400406"
               x="396.50076"
               y="57.818222" />
            <path
               id="path92"
               style="fill:#5b9bd5;fill-opacity:1;fill-rule:evenodd;stroke:#ffffff;stroke-width:0.445799;stroke-linecap:round;stroke-linejoin:round"
               d="m 457.28309,13.807872 c 0.004,0.04328 0.008,0.07499 0.0114,0.128099 h -14.24756 v 0.188709 h -44.21294 c 1.30766,3.960135 7.92449,19.631086 8.71701,20.547136 v 8.12e-4 c -0.80544,0.932248 -7.66563,17.216051 -8.80314,20.823341 v 0.270519 h -0.0802 c -0.006,0.02265 -0.0106,0.04076 -0.0157,0.06076 h 44.39441 v 0.189537 h 14.25298 c -0.004,0.05343 -0.008,0.08373 -0.0118,0.127162 0.0142,-0.04031 0.0285,-0.07951 0.0476,-0.127162 h 0.11376 v -0.270532 c 1.61579,-3.599995 11.36074,-19.850852 12.5048,-20.781211 v -8.12e-4 c -1.144,-0.92901 -10.87128,-17.125113 -12.50485,-20.747197 v -0.281032 h -0.11918 c -0.0191,-0.04734 -0.0324,-0.0881 -0.0466,-0.128099 z m 12.67058,21.15705 c 0.0716,0.05795 0.11593,0.06796 0.11593,-8.12e-4 0,-0.06905 -0.0444,-0.05733 -0.11593,8.12e-4 z m -62.34254,-0.341003 c 0.0142,-0.0015 0.0222,0.01249 0.0222,0.04702 0,0.06905 -0.0314,0.05889 -0.0818,8.11e-4 0.0252,-0.02921 0.0455,-0.04624 0.0596,-0.0478 z m -11.43868,21.142458 v 0.06076 h 2.46596 c 10e-4,-0.01891 0.003,-0.0353 0.004,-0.06076 z m 2.46217,0.128099 c -0.013,0.208378 -0.0267,0.326867 -0.0412,0.292389 -0.0144,-0.03452 0.004,-0.141994 0.0412,-0.292389 z" />
          </g>
          <g
             id="g90"
             transform="translate(-41.815758,598.74548)">
            <rect
               style="fill:url(#linearGradient36);fill-opacity:1;fill-rule:evenodd;stroke:none;stroke-width:1.27228;stroke-linecap:round;stroke-linejoin:round;stroke-opacity:1"
               id="rect30"
               width="73.240562"
               height="67.400406"
               x="396.50076"
               y="57.818222" />
            <path
               id="path30"
               style="fill:#5b9bd5;fill-opacity:1;fill-rule:evenodd;stroke:#ffffff;stroke-width:0.445799;stroke-linecap:round;stroke-linejoin:round"
               d="m 457.28309,13.807872 c 0.004,0.04328 0.008,0.07499 0.0114,0.128099 h -14.24756 v 0.188709 h -44.21294 c 1.30766,3.960135 7.92449,19.631086 8.71701,20.547136 v 8.12e-4 c -0.80544,0.932248 -7.66563,17.216051 -8.80314,20.823341 v 0.270519 h -0.0802 c -0.006,0.02265 -0.0106,0.04076 -0.0157,0.06076 h 44.39441 v 0.189537 h 14.25298 c -0.004,0.05343 -0.008,0.08373 -0.0118,0.127162 0.0142,-0.04031 0.0285,-0.07951 0.0476,-0.127162 h 0.11376 v -0.270532 c 1.61579,-3.599995 11.36074,-19.850852 12.5048,-20.781211 v -8.12e-4 c -1.144,-0.92901 -10.87128,-17.125113 -12.50485,-20.747197 v -0.281032 h -0.11918 c -0.0191,-0.04734 -0.0324,-0.0881 -0.0466,-0.128099 z m 12.67058,21.15705 c 0.0716,0.05795 0.11593,0.06796 0.11593,-8.12e-4 0,-0.06905 -0.0444,-0.05733 -0.11593,8.12e-4 z m -62.34254,-0.341003 c 0.0142,-0.0015 0.0222,0.01249 0.0222,0.04702 0,0.06905 -0.0314,0.05889 -0.0818,8.11e-4 0.0252,-0.02921 0.0455,-0.04624 0.0596,-0.0478 z m -11.43868,21.142458 v 0.06076 h 2.46596 c 10e-4,-0.01891 0.003,-0.0353 0.004,-0.06076 z m 2.46217,0.128099 c -0.013,0.208378 -0.0267,0.326867 -0.0412,0.292389 -0.0144,-0.03452 0.004,-0.141994 0.0412,-0.292389 z" />
          </g>
          <text
             xml:space="preserve"
             style="font-size:6.35px;line-height:1.25;font-family:Cambria;-inkscape-font-specification:'Cambria, Normal';font-variant-ligatures:none;text-decoration-color:#000000;word-spacing:0px;fill:#ffffff;stroke-width:0.264583;-inkscape-stroke:none;stop-color:#000000"
             x="211.27396"
             y="629.12854"
             id="text58"><tspan
               sodipodi:role="line"
               id="tspan58"
               style="fill:#ffffff;stroke-width:0.264583"
               x="211.27396"
               y="629.12854">Document</tspan><tspan
               sodipodi:role="line"
               style="fill:#ffffff;stroke-width:0.264583"
               x="211.27396"
               y="637.06604"
               id="tspan59">Circulation and</tspan><tspan
               sodipodi:role="line"
               style="fill:#ffffff;stroke-width:0.264583"
               x="211.27396"
               y="645.00354"
               id="tspan60">Gauging Interest</tspan></text>
          <text
             xml:space="preserve"
             style="font-size:6.35px;line-height:1.25;font-family:Cambria;-inkscape-font-specification:'Cambria, Normal';font-variant-ligatures:none;text-decoration-color:#000000;word-spacing:0px;fill:#ffffff;stroke-width:0.264583;-inkscape-stroke:none;stop-color:#000000"
             x="300.18658"
             y="633.7655"
             id="text61"><tspan
               sodipodi:role="line"
               id="tspan61"
               style="fill:#ffffff;stroke-width:0.264583"
               x="300.18658"
               y="633.7655">Ensuring</tspan><tspan
               sodipodi:role="line"
               style="fill:#ffffff;stroke-width:0.264583"
               x="300.18658"
               y="641.703"
               id="tspan62">Sanction</tspan></text>
          <text
             xml:space="preserve"
             style="font-size:6.35px;line-height:1.25;font-family:Cambria;-inkscape-font-specification:'Cambria, Normal';font-variant-ligatures:none;text-decoration-color:#000000;word-spacing:0px;fill:#ffffff;stroke-width:0.264583;-inkscape-stroke:none;stop-color:#000000"
             x="374.58072"
             y="629.79675"
             id="text63"><tspan
               sodipodi:role="line"
               id="tspan63"
               style="fill:#ffffff;stroke-width:0.264583"
               x="374.58072"
               y="629.79675">Negotiation</tspan><tspan
               sodipodi:role="line"
               style="fill:#ffffff;stroke-width:0.264583"
               x="374.58072"
               y="637.73425"
               id="tspan64">Support and </tspan><tspan
               sodipodi:role="line"
               style="fill:#ffffff;stroke-width:0.264583"
               x="374.58072"
               y="645.67175"
               id="tspan65">Assistance</tspan></text>
          <g
             id="g97"
             transform="translate(-41.873397,595.69271)">
            <text
               xml:space="preserve"
               style="font-size:6.35px;line-height:1.25;font-family:Cambria;-inkscape-font-specification:'Cambria, Normal';font-variant-ligatures:none;text-decoration-color:#000000;word-spacing:0px;fill:#000000;stroke-width:0.264583;-inkscape-stroke:none;stop-color:#000000"
               x="248.66293"
               y="69.113205"
               id="text52"><tspan
                 sodipodi:role="line"
                 style="stroke-width:0.264583"
                 x="248.66293"
                 y="69.113205"
                 id="tspan52">Distribution of </tspan><tspan
                 sodipodi:role="line"
                 style="stroke-width:0.264583"
                 x="248.66293"
                 y="77.050705"
                 id="tspan55">Information and CMA </tspan><tspan
                 sodipodi:role="line"
                 style="stroke-width:0.264583"
                 x="248.66293"
                 y="84.988205"
                 id="tspan56">to  the interested</tspan><tspan
                 sodipodi:role="line"
                 style="stroke-width:0.264583"
                 x="248.66293"
                 y="92.925705"
                 id="tspan57">lenders.</tspan></text>
            <ellipse
               style="fill:#000000;fill-opacity:1;fill-rule:evenodd;stroke:none;stroke-width:0.585863;stroke-linecap:round;stroke-linejoin:round;stroke-opacity:1"
               id="ellipse86"
               cx="245.25397"
               cy="66.635429"
               rx="0.70047164"
               ry="0.66711587" />
          </g>
          <g
             id="g98"
             transform="translate(-40.023828,597.91871)">
            <text
               xml:space="preserve"
               style="font-size:6.35px;line-height:1.25;font-family:Cambria;-inkscape-font-specification:'Cambria, Normal';font-variant-ligatures:none;text-decoration-color:#000000;word-spacing:0px;fill:#000000;stroke-width:0.264583;-inkscape-stroke:none;stop-color:#000000"
               x="326.13962"
               y="66.871696"
               id="text74"><tspan
                 sodipodi:role="line"
                 id="tspan74"
                 style="stroke-width:0.264583"
                 x="326.13962"
                 y="66.871696">Facilitating timely</tspan><tspan
                 sodipodi:role="line"
                 style="stroke-width:0.264583"
                 x="326.13962"
                 y="74.809196"
                 id="tspan75">facility sanction with</tspan><tspan
                 sodipodi:role="line"
                 style="stroke-width:0.264583"
                 x="326.13962"
                 y="82.746696"
                 id="tspan76">lenders and</tspan><tspan
                 sodipodi:role="line"
                 style="stroke-width:0.264583"
                 x="326.13962"
                 y="90.684196"
                 id="tspan77">corporates.</tspan></text>
            <ellipse
               style="fill:#000000;fill-opacity:1;fill-rule:evenodd;stroke:none;stroke-width:0.585863;stroke-linecap:round;stroke-linejoin:round;stroke-opacity:1"
               id="ellipse88"
               cx="323.52002"
               cy="64.9543"
               rx="0.70047164"
               ry="0.66711587" />
          </g>
          <g
             id="g99"
             transform="translate(-42.344087,599.80214)">
            <text
               xml:space="preserve"
               style="font-size:6.35px;line-height:1.25;font-family:Cambria;-inkscape-font-specification:'Cambria, Normal';font-variant-ligatures:none;text-decoration-color:#000000;word-spacing:0px;fill:#000000;stroke-width:0.264583;-inkscape-stroke:none;stop-color:#000000"
               x="411.93707"
               y="65.003777"
               id="text78"><tspan
                 sodipodi:role="line"
                 id="tspan78"
                 style="stroke-width:0.264583"
                 x="411.93707"
                 y="65.003777">At final stage assist</tspan><tspan
                 sodipodi:role="line"
                 style="stroke-width:0.264583"
                 x="411.93707"
                 y="72.941277"
                 id="tspan79">client in area of</tspan><tspan
                 sodipodi:role="line"
                 style="stroke-width:0.264583"
                 x="411.93707"
                 y="80.878777"
                 id="tspan80">negotiation on</tspan><tspan
                 sodipodi:role="line"
                 style="stroke-width:0.264583"
                 x="411.93707"
                 y="88.816277"
                 id="tspan81">relevant favorable</tspan><tspan
                 sodipodi:role="line"
                 style="stroke-width:0.264583"
                 x="411.93707"
                 y="96.753777"
                 id="tspan82">banking terms.</tspan><tspan
                 sodipodi:role="line"
                 style="stroke-width:0.264583"
                 x="411.93707"
                 y="104.69128"
                 id="tspan83">Assisit on </tspan><tspan
                 sodipodi:role="line"
                 style="stroke-width:0.264583"
                 x="411.93707"
                 y="112.62878"
                 id="tspan85">documentation of</tspan><tspan
                 sodipodi:role="line"
                 style="stroke-width:0.264583"
                 x="411.93707"
                 y="120.56628"
                 id="tspan86">disbursement.</tspan></text>
            <ellipse
               style="fill:#000000;fill-opacity:1;fill-rule:evenodd;stroke:none;stroke-width:0.585863;stroke-linecap:round;stroke-linejoin:round;stroke-opacity:1"
               id="ellipse87"
               cx="407.82312"
               cy="63.273167"
               rx="0.70047164"
               ry="0.66711587" />
            <ellipse
               style="fill:#000000;fill-opacity:1;fill-rule:evenodd;stroke:none;stroke-width:0.585863;stroke-linecap:round;stroke-linejoin:round;stroke-opacity:1"
               id="ellipse90"
               cx="407.07593"
               cy="102.31279"
               rx="0.70047164"
               ry="0.66711587" />
          </g>
        </g>
      </g>
    </g>
  </g>
</svg>
